<svg id="SvgjsSvg1001" width="288" height="288" xmlns="http://www.w3.org/2000/svg" version="1.1" xmlns:xlink="http://www.w3.org/1999/xlink" xmlns:svgjs="http://svgjs.com/svgjs"><defs id="SvgjsDefs1002"></defs><g id="SvgjsG1008"><svg xmlns="http://www.w3.org/2000/svg" width="288" height="288" version="1.0" viewBox="0 0 225 225"><g transform="matrix(.1 0 0 -.1 0 225)" fill="#e41749" class="color000 svgShape"><path d="M400 1380 c0 -7 263 -10 770 -10 l770 0 0 -180 0 -180 -815 0 -815 0-1 128 c0 138 -11 196 -22 127 -9 -50 -9 -238 -1 -259 6 -14 89 -16 845 -16
l839 0 0 200 0 200 -785 0 c-517 0 -785 -3 -785 -10z" fill="#e41749" class="color000 svgShape"></path><path d="M407 1282c-34-38-18-71 51-106 36-19 39-41 9-60-15-9-22-7-38 13-11 13-25 21-34 17-38-14 8-66 60-66 39 0 75 31 75 66 0 23-45 68-80 79-11 3-20 12-20 20 0 18 30 28 45 15 13-11 45-4 45 11 0 30-88 38-113 11zM600 1276c0-13-7-40-15-60-9-20-24-59-35-86l-20-50 24 0c18 0 27 8 35 30 9 27 14 30 51 30 37 0 42-3 51-30 8-22 17-30 34-30l23 0-39 101c-49 126-44 119-80 119-24 0-29-4-29-24zm50-35c0-5 3-23 6-40 6-26 4-31-13-31-29 0-31 6-19 45 10 32 26 48 26 26zM764 1284c3-9 6-58 6-110 0-86 2-94 19-94 16 0 20 8 23 37 4 50 22 52 50 4 16-29 30-41 46-41 27 0 27 4 1 42-21 29-21 32-5 58 40 69 2 120-91 120-46 0-54-3-49-16zm114-51c2-14-4-26-18-33-31-17-50-5-50 30 0 29 2 31 33 28 24-2 33-8 35-25zM1012 1278c0-13-14-58-31-101-36-91-37-97-12-97 12 0 23 11 30 30 9 27 14 30 51 30 37 0 43-3 53-30 8-21 18-30 34-30 13 0 23 1 23 3 0 1-19 49-43 107-40 100-44 105-73 108-27 3-32 0-32-20zm44-99c-26-6-31 8-15 47l11 29 13-35c11-32 10-35-9-41zM1258 1217c3-67 1-86-12-96-14-12-19-11-34 3-35 31-67 9-36-25 23-25 78-25 104 1 17 17 20 33 20 110 0 87-1 90-22 90-22 0-23-3-20-83zM1334 1285c3-9 6-59 6-111l0-95 68 3c52 2 67 6 67 18 0 11-13 16-47 18-43 3-48 5-48 28 0 21 4 24 40 24 33 0 40 3 40 20 0 17-7 20-40 20-36 0-40 3-40 24 0 23 5 25 48 28 34 2 47 7 47 18 0 12-16 16-74 18-64 3-73 1-67-13zM1490 1293c0-5 4-13 9-18 6-6 25-50 44-100 46-122 59-121 109 5 44 113 45 122 16 118-17-2-27-18-46-77l-25-75-27 75c-24 64-31 74-54 77-14 2-26-1-26-5zM1723 1285c4-8-10-54-28-102-19-48-35-91-35-95 0-5 9-8 21-8 13 0 23 10 30 30 10 27 15 30 53 30 37 0 43-3 53-30 8-21 18-30 33-30 17 0 21 4 15 18-3 9-23 59-42 110-35 92-36 92-70 92-27 0-34-4-30-15zm67-107c0-5-11-8-25-8-29 0-29 0-13 52l11 39 14-38c7-21 13-41 13-45zM643 904c-4-11 3-24 18-36 24-20 24-20 2-15-26 6-31-10-7-20 8-3 22 1 31 9 13 14 12 18-8 37-19 18-20 21-5 21 9 0 14 5 11 10-10 16-35 12-42-6zM720 910c0-5 6-10 13-10 9 0 14-12 15-31 1-42 12-51 12-10 0 19 6 34 15 37 27 11 16 24-20 24-19 0-35-4-35-10zM820 875c0-41 2-45 25-45 14 0 25 5 25 10 0 6-7 10-15 10-21 0-19 18 3 23 16 4 16 5 0 6-22 1-24 21-3 21 8 0 15 5 15 10 0 6-11 10-25 10-23 0-25-4-25-45zM919 875c-17-45-14-56 9-33 10 10 17 10 33 0 12-8 22-12 24-10 5 6-34 88-42 88-5 0-15-20-24-45zM1019 873c3-27 6-40 9-30 5 22 18 22 31 0 5-10 13-15 17-10 4 4-1 16-12 28-18 20-18 21 0 35 11 7 17 17 13 21-4 3-16-2-27-12-18-16-20-16-20-2 0 10-3 17-8 17-4 0-5-21-3-47zM1158 875c2-25 8-42 13-39 5 3 9 11 9 18 0 7 7 13 15 13 8 0 15-9 15-19 0-10 5-18 10-18 6 0 10 18 10 39 0 22-4 43-10 46-5 3-10-3-10-14 0-27-26-27-33-1-10 37-22 20-19-25zM1266 904c-30-30-13-74 29-74 44 0 63 60 26 80-27 14-37 13-55-6zm52-32c3-18-1-22-22-22-19 0-26 5-26 18 0 39 43 43 48 4zM1370 886c0-39 20-60 50-51 16 5 20 15 20 48 0 45-16 41-22-6-5-41-23-38-26 6-4 46-22 49-22 3zM1480 906c-9-12-7-17 9-28 27-17 27-31 0-23-15 5-20 3-17-6 3-8 14-15 26-17 29-4 42 26 19 43-21 15-22 25-1 25 8 0 12 5 9 10-9 14-31 12-45-4zM1560 875c0-41 2-45 25-45 14 0 25 5 25 10 0 6-7 10-15 10-21 0-19 20 3 21 10 0 12 3 5 6-18 7-16 23 3 23 8 0 12 5 9 10-3 6-17 10-31 10-22 0-24-4-24-45z" fill="#e41749" class="color000 svgShape"></path></g></svg></g></svg>