<svg xmlns="http://www.w3.org/2000/svg" width="142.1" height="47.7" viewBox="0 0 142.1 47.7">
  <path id="SARAJEVA_logo" d="M108,41.3c0-.2,0-.3-.1-.4s-.1-.2-.2-.2c-.1-.1-.1-.1-.1-.2s.1-.1.2-.1h4.4c.1,0,.1,0,.2.1.1,0,.1.1.1.2v.6c0,.1,0,.1-.1.2-.1,0-.1.1-.2.1h-2.5c-.1,0-.1,0-.2.1,0,.1-.1.1-.1.2v1.2c0,.1,0,.1.1.2,0,.1.1.1.2.1h2c.1,0,.1,0,.2.1a.349.349,0,0,1,.1.2v.6c0,.1,0,.1-.1.2-.1,0-.1.1-.2.1h-2c-.1,0-.1,0-.2.1,0,.1-.1.1-.1.2v1.3c0,.1,0,.1.1.2a.349.349,0,0,0,.2.1h2.5c.1,0,.1,0,.2.1s.1.1.1.2v.6c0,.1,0,.1-.1.2-.1,0-.1.1-.2.1h-3.8c-.1,0-.1,0-.2-.1a.349.349,0,0,1-.1-.2V41.3Zm-5.2-1.1a4.253,4.253,0,0,1,1.1.2,5.547,5.547,0,0,1,.8.6c0,.1.1.1,0,.2,0,.1-.1.1-.1.2l-.5.4a.31.31,0,0,1-.2.1c-.1,0-.1-.1-.2-.1a1.38,1.38,0,0,0-.4-.3.749.749,0,0,0-.5-.1.367.367,0,0,0-.3.1c-.1,0-.2.1-.3.2l-.2.2c0,.1-.1.2-.1.3a.367.367,0,0,0,.1.3l.3.3a.758.758,0,0,0,.4.2c.2.1.3.1.5.2a1.612,1.612,0,0,1,.7.4,2.651,2.651,0,0,1,.6.5,2.092,2.092,0,0,1,.4.6,1.7,1.7,0,0,1,0,1.6,1.794,1.794,0,0,1-.5.7,2.177,2.177,0,0,1-.8.5,2.92,2.92,0,0,1-.9.2,1.95,1.95,0,0,1-.8-.1,1.612,1.612,0,0,1-.7-.4c-.2-.2-.4-.3-.5-.5a.908.908,0,0,1-.3-.7v-.2a.1.1,0,0,1,.1-.1l.8-.3h.2c.1,0,.1.1.1.2a1.794,1.794,0,0,0,.5.7,1.135,1.135,0,0,0,.8.3.6.6,0,0,0,.4-.1c.1-.1.2-.1.3-.2s.2-.2.2-.3a.6.6,0,0,0,.1-.4.845.845,0,0,0-.2-.6,2.092,2.092,0,0,0-.6-.4,6.89,6.89,0,0,0-.8-.3,2.994,2.994,0,0,1-.8-.4,3.394,3.394,0,0,1-.6-.6c-.2-.2-.2-.5-.2-.9a1.445,1.445,0,0,1,.2-.7,2.651,2.651,0,0,1,.5-.6,1.612,1.612,0,0,1,.7-.4C102.3,40.2,102.5,40.2,102.8,40.2Zm-5.2,4.5a4.253,4.253,0,0,1-.2,1.1,4.7,4.7,0,0,1-.6.9l-.9.6a3.6,3.6,0,0,1-1.1.2,4.253,4.253,0,0,1-1.1-.2,2.361,2.361,0,0,1-.9-.6,1.456,1.456,0,0,1-.6-.9,3.6,3.6,0,0,1-.2-1.1V41.3c0-.2,0-.3-.1-.4s-.1-.2-.2-.2c-.1-.1-.1-.1-.1-.2s.1-.1.2-.1H93c.1,0,.1,0,.2.1.1,0,.1.1.1.2v4.1a1.268,1.268,0,0,0,.1.6,2.186,2.186,0,0,0,.3.5.85.85,0,0,0,.5.3,1.85,1.85,0,0,0,1.2,0c.2-.1.3-.2.5-.3a2.186,2.186,0,0,0,.3-.5,1.268,1.268,0,0,0,.1-.6V40.6c0-.1,0-.1.1-.2s.1-.1.2-.1h.8c.1,0,.1,0,.2.1.1,0,.1.1.1.2v4.1ZM85.5,40.2a4.013,4.013,0,0,1,1.5.3,2.55,2.55,0,0,1,1.2.8,3.6,3.6,0,0,1,.8,1.2,3.417,3.417,0,0,1,0,2.8,8.341,8.341,0,0,1-.8,1.2,3.6,3.6,0,0,1-1.2.8,3.9,3.9,0,0,1-3,0,2.55,2.55,0,0,1-1.2-.8,3.6,3.6,0,0,1-.8-1.2,3.417,3.417,0,0,1,0-2.8,8.341,8.341,0,0,1,.8-1.2,3.6,3.6,0,0,1,1.2-.8A3.653,3.653,0,0,1,85.5,40.2Zm0,6.1a3.553,3.553,0,0,0,1-.2,2.1,2.1,0,0,0,1.3-1.3,2.6,2.6,0,0,0,0-2,2.1,2.1,0,0,0-1.3-1.3,2.6,2.6,0,0,0-2,0,2.1,2.1,0,0,0-1.3,1.3,2.6,2.6,0,0,0,0,2,2.1,2.1,0,0,0,1.3,1.3A1.645,1.645,0,0,0,85.5,46.3Zm-11.6-5c0-.2,0-.3-.1-.4s-.1-.2-.2-.2c-.1-.1-.1-.1-.1-.2s.1-.1.2-.1H75c.1,0,.1,0,.2.1.1,0,.1.1.1.2V43c0,.1,0,.1.1.2,0,.1.1.1.2.1H78c.1,0,.1,0,.2-.1s.1-.1.1-.2V40.7c0-.1,0-.1.1-.2s.1-.1.2-.1h.8c.1,0,.1,0,.2.1.1,0,.1.1.1.2v6.5c0,.1,0,.1-.1.2-.1,0-.1.1-.2.1h-.8c-.1,0-.1,0-.2-.1-.1,0-.1-.1-.1-.2V44.7c0-.1,0-.1-.1-.2,0-.1-.1-.1-.2-.1H75.5c-.1,0-.1,0-.2.1,0,.1-.1.1-.1.2v2.5c0,.1,0,.1-.1.2-.1,0-.1.1-.2.1h-.8c-.1,0-.1,0-.2-.1a.349.349,0,0,1-.1-.2V41.3ZM62,41.3c0-.2,0-.3-.1-.4s-.1-.2-.2-.2c-.1-.1-.1-.1-.1-.2s.1-.1.2-.1H63c.1,0,.1,0,.2.1.1,0,.1.1.1.2v2.5a.1.1,0,0,0,.1-.1l.4-.7,1.6-1.8c.1-.1.2-.2.3-.2h1.4c.1,0,.1,0,.1.1s0,.1-.1.2l-2.3,2.5-.1.1v.2l2.8,3.7c.1.1.1.1,0,.2l-.1.1H66.2c-.1,0-.2-.1-.3-.2l-2.1-2.8c-.1-.1-.2-.1-.2,0l-.2.3-.1.1a.1.1,0,0,1-.1.1v2.3c0,.1,0,.1-.1.2-.1,0-.1.1-.2.1h-.8c-.1,0-.1,0-.2-.1-.1,0-.1-.1-.1-.2v-6Zm-7.3,4.2h-.2l-.1.1L53.9,47c0,.1-.1.1-.1.2-.1,0-.1.1-.2.1h-.9c-.1,0-.1,0-.2-.1V47l2.2-5.6a.9.9,0,0,0,.1-.5.52.52,0,0,0-.2-.4c-.1-.1-.1-.1-.1-.2s.1-.1.2-.1h1.7c.1,0,.2,0,.2.1.1,0,.1.1.1.2L59.2,47v.2a.349.349,0,0,1-.2.1h-.8c-.1,0-.1,0-.2-.1-.1,0-.1-.1-.1-.2l-.5-1.4a.1.1,0,0,0-.1-.1H54.7Zm1.8-1.2c.2,0,.2-.1.2-.3l-.6-1.5-.2-.9c0-.1,0-.1-.1-.1s-.1,0-.1.1l-.2.9L54.9,44c-.1.2,0,.3.2.3Zm-11.2-3c0-.2,0-.3-.1-.4s-.1-.2-.2-.2c-.1-.1-.1-.1-.1-.2s.1-.1.2-.1h4.4c.1,0,.1,0,.2.1.1,0,.1.1.1.2v.6c0,.1,0,.1-.1.2-.1,0-.1.1-.2.1H47c-.1,0-.1,0-.2.1,0,.1-.1.1-.1.2v1.2c0,.1,0,.1.1.2,0,.1.1.1.2.1h2c.1,0,.1,0,.2.1a.349.349,0,0,1,.1.2v.6c0,.1,0,.1-.1.2a.349.349,0,0,1-.2.1H47c-.1,0-.1,0-.2.1,0,.1-.1.1-.1.2v1.3c0,.1,0,.1.1.2a.349.349,0,0,0,.2.1h2.5c.1,0,.1,0,.2.1s.1.1.1.2v.6c0,.1,0,.1-.1.2-.1,0-.1.1-.2.1H45.7c-.1,0-.1,0-.2-.1a.349.349,0,0,1-.1-.2V41.3Zm-3.2-1c.1,0,.1,0,.2.1a.349.349,0,0,1,.1.2v.6c0,.1,0,.1-.1.2a.349.349,0,0,1-.2.1H40.6c-.1,0-.1,0-.2.1,0,.1-.1.1-.1.2v5.3c0,.1,0,.1-.1.2s-.1.1-.2.1h-.8c-.1,0-.1,0-.2-.1s-.1-.1-.1-.2V41.8c0-.1,0-.1-.1-.2,0-.1-.1-.1-.2-.1H37.1c-.1,0-.1,0-.2-.1-.1,0-.1-.1-.1-.2v-.6c0-.1,0-.1.1-.2,0-.1.1-.1.2-.1Zm-9.8-.1a4.253,4.253,0,0,1,1.1.2,5.547,5.547,0,0,1,.8.6c0,.1.1.1,0,.2,0,.1-.1.1-.1.2l-.5.4a.31.31,0,0,1-.2.1c-.1,0-.1-.1-.2-.1a1.38,1.38,0,0,0-.4-.3.749.749,0,0,0-.5-.1.367.367,0,0,0-.3.1c-.1,0-.2.1-.3.2l-.2.2c0,.1-.1.2-.1.3a.367.367,0,0,0,.1.3l.3.3a.758.758,0,0,0,.4.2c.2.1.3.1.5.2a1.612,1.612,0,0,1,.7.4,2.651,2.651,0,0,1,.6.5,2.092,2.092,0,0,1,.4.6,1.7,1.7,0,0,1,0,1.6,1.794,1.794,0,0,1-.5.7,2.177,2.177,0,0,1-.8.5,2.92,2.92,0,0,1-.9.2,1.949,1.949,0,0,1-.8-.1,1.612,1.612,0,0,1-.7-.4c-.2-.2-.4-.3-.5-.5a.908.908,0,0,1-.3-.7v-.2a.1.1,0,0,1,.1-.1l.8-.3H31c.1,0,.1.1.1.2a1.794,1.794,0,0,0,.5.7,1.135,1.135,0,0,0,.8.3.6.6,0,0,0,.4-.1c.1-.1.2-.1.3-.2s.2-.2.2-.3a.6.6,0,0,0,.1-.4.845.845,0,0,0-.2-.6,2.092,2.092,0,0,0-.6-.4,6.89,6.89,0,0,0-.8-.3,2.994,2.994,0,0,1-.8-.4,3.394,3.394,0,0,1-.6-.6c-.2-.2-.2-.5-.2-.9a1.445,1.445,0,0,1,.2-.7,2.651,2.651,0,0,1,.5-.6,1.612,1.612,0,0,1,.7-.4C31.7,40.2,32,40.2,32.3,40.2ZM14.6,7.6a6.71,6.71,0,0,1,2.8.6,5.446,5.446,0,0,1,2,1.6c.1.2.2.3.1.5s-.1.3-.3.4l-1.4,1.1a.735.735,0,0,1-.6.2,1.756,1.756,0,0,1-.5-.4,2.178,2.178,0,0,0-.9-.7,2.768,2.768,0,0,0-1.3-.3,2.92,2.92,0,0,0-.9.2,2.994,2.994,0,0,0-.8.4,2.651,2.651,0,0,0-.5.6,1.854,1.854,0,0,0-.2.7,1.136,1.136,0,0,0,.3.8,2.336,2.336,0,0,0,.7.7,10.908,10.908,0,0,0,1.1.6c.4.2.8.4,1.3.6.7.3,1.3.6,1.9.9A6.1,6.1,0,0,1,19,17.3a5.715,5.715,0,0,1,1.1,1.6,4.638,4.638,0,0,1,.4,2.1,5.45,5.45,0,0,1-.5,2.2A5.936,5.936,0,0,1,18.7,25a6.657,6.657,0,0,1-2,1.2,6.874,6.874,0,0,1-2.4.5,7.8,7.8,0,0,1-2.2-.3,6.632,6.632,0,0,1-1.9-.9,6.2,6.2,0,0,1-1.4-1.4,5.076,5.076,0,0,1-.9-1.8.446.446,0,0,1,0-.5c.1-.2.2-.3.4-.3l2-.7a.454.454,0,0,1,.5,0,1.38,1.38,0,0,1,.3.4,4.738,4.738,0,0,0,1.2,1.9,2.883,2.883,0,0,0,2,.7,4.253,4.253,0,0,0,1.1-.2,2.361,2.361,0,0,0,.9-.6,1.456,1.456,0,0,0,.6-.9,3.6,3.6,0,0,0,.2-1.1,2.111,2.111,0,0,0-.6-1.6A5.826,5.826,0,0,0,15,18.3c-.6-.3-1.3-.6-2-.9a12.445,12.445,0,0,1-2-1,5.356,5.356,0,0,1-1.5-1.5,3.921,3.921,0,0,1-.6-2.3,4.136,4.136,0,0,1,.5-1.9A4.072,4.072,0,0,1,10.6,9a5.244,5.244,0,0,1,1.8-1A5.381,5.381,0,0,1,14.6,7.6ZM1,0H142.1V34.3H0V0ZM140.1,2H2V32.3H140.1ZM122,21.4a.749.749,0,0,0-.5.1,1.381,1.381,0,0,0-.3.4l-1.3,3.7a1.756,1.756,0,0,1-.4.5,1.689,1.689,0,0,1-.5.2h-2.3a.764.764,0,0,1-.5-.2.446.446,0,0,1,0-.5l5.7-14.5a2.954,2.954,0,0,0,.2-1.3,1.346,1.346,0,0,0-.5-.9c-.2-.2-.3-.4-.2-.6a.55.55,0,0,1,.5-.3h4.5a1.421,1.421,0,0,1,.6.2,1,1,0,0,1,.4.5L134,25.6a.454.454,0,0,1,0,.5.588.588,0,0,1-.5.2h-2.2a1.421,1.421,0,0,1-.6-.2,1,1,0,0,1-.4-.5l-1.4-3.7a1.38,1.38,0,0,0-.3-.4.749.749,0,0,0-.5-.1H122Zm4.9-2.9c.5,0,.6-.2.4-.7l-1.5-4-.6-2.2c0-.2-.1-.2-.3-.2-.1,0-.2.1-.3.2l-.6,2.2-1.5,4c-.2.5,0,.7.4.7Zm-23.4-7.8a13.391,13.391,0,0,0-.6-1.2,1.779,1.779,0,0,0-.8-.7c-.3-.2-.4-.3-.4-.5a.462.462,0,0,1,.5-.3h3.3c.3,0,.5,0,.6.1a2.186,2.186,0,0,1,.3.5l3.7,10,.5,2.4c0,.2.1.2.2.2a.215.215,0,0,0,.2-.2l.5-2.4,3.7-10c.1-.3.2-.5.3-.5.1-.1.3-.1.6-.1h2.3c.2,0,.4.1.4.2a.3.3,0,0,1,0,.4l-6.5,17c-.1.3-.2.5-.3.5-.1.1-.3.1-.6.1h-1.3c-.3,0-.5,0-.6-.1a2.186,2.186,0,0,1-.3-.5Zm-14.3-.1A3.087,3.087,0,0,0,89,9.5a4.349,4.349,0,0,0-.6-.7c-.4-.1-.5-.3-.4-.5,0-.2.2-.3.4-.3H99.8a.684.684,0,0,1,.7.7v1.6c0,.2-.1.3-.2.5a.764.764,0,0,1-.5.2H93.2c-.2,0-.3.1-.5.2a.764.764,0,0,0-.2.5v3.1a.684.684,0,0,0,.7.7h5.2a.684.684,0,0,1,.7.7v1.6a.684.684,0,0,1-.7.7H93.2c-.2,0-.3.1-.5.2a.764.764,0,0,0-.2.5v3.5a.684.684,0,0,0,.7.7h6.6a.684.684,0,0,1,.7.7v1.6c0,.2-.1.3-.2.5a.764.764,0,0,1-.5.2h-10c-.2,0-.3-.1-.5-.2a.764.764,0,0,1-.2-.5V10.6ZM85.8,20.7a5.932,5.932,0,0,1-.5,2.3A5.863,5.863,0,0,1,84,24.9a6.405,6.405,0,0,1-1.9,1.3,5.932,5.932,0,0,1-2.3.5,5.663,5.663,0,0,1-1.8-.3,7.973,7.973,0,0,1-1.6-.8,7.41,7.41,0,0,1-1.3-1.2,5.072,5.072,0,0,1-.9-1.6.446.446,0,0,1,0-.5c.1-.2.2-.3.4-.3l1.9-.6a.446.446,0,0,1,.5,0c.1.1.3.2.4.4a2.434,2.434,0,0,0,1,1.4,2.26,2.26,0,0,0,1.5.5,2.959,2.959,0,0,0,1-.2,5.547,5.547,0,0,0,.8-.6l.6-.9a4.253,4.253,0,0,0,.2-1.1V10.6a3.087,3.087,0,0,0-.2-1.1,5.008,5.008,0,0,0-.8-.7c-.3-.2-.4-.3-.3-.5,0-.2.2-.3.4-.3H85a.684.684,0,0,1,.7.7v12Zm-24,.7a.749.749,0,0,0-.5.1,1.38,1.38,0,0,0-.3.4l-1.3,3.7a1.756,1.756,0,0,1-.4.5,1.69,1.69,0,0,1-.5.2H56.5a.764.764,0,0,1-.5-.2.446.446,0,0,1,0-.5l5.7-14.5a2.953,2.953,0,0,0,.2-1.3,1.346,1.346,0,0,0-.5-.9c-.2-.2-.3-.4-.2-.6,0-.2.1-.3.4-.3h4.5a1.421,1.421,0,0,1,.6.2.85.85,0,0,1,.3.5l6.6,16.9a.454.454,0,0,1,0,.5c-.1.2-.2.2-.5.2H70.9a1.421,1.421,0,0,1-.6-.2,1,1,0,0,1-.4-.5l-1.4-3.7a1.38,1.38,0,0,0-.3-.4.749.749,0,0,0-.5-.1H61.8Zm4.9-2.9c.5,0,.6-.2.4-.7l-1.5-4L65,11.6c0-.2-.1-.2-.3-.2s-.2.1-.3.2l-.6,2.2-1.5,4c-.2.5,0,.7.4.7Zm-19-1.7a4.253,4.253,0,0,0,1.1-.2l.9-.6a2.361,2.361,0,0,0,.6-.9,4.253,4.253,0,0,0,.2-1.1,3.6,3.6,0,0,0-.2-1.1,1.456,1.456,0,0,0-.6-.9,2.361,2.361,0,0,0-.9-.6,1.374,1.374,0,0,0-1.1-.4H45.3c-.2,0-.3.1-.5.2a.764.764,0,0,0-.2.5v4.5a.684.684,0,0,0,.7.7h2.4Zm0-8.8a6.042,6.042,0,0,1,2.4.5,5.328,5.328,0,0,1,2,1.3,4.968,4.968,0,0,1,1.3,1.9,5.932,5.932,0,0,1,.5,2.3,5.467,5.467,0,0,1-.8,2.9,5.737,5.737,0,0,1-2.1,2,.781.781,0,0,0-.4.4c-.1.1,0,.3.1.5l3.5,5.8a.9.9,0,0,1,.1.5.52.52,0,0,1-.4.2H51.4a1.421,1.421,0,0,1-.6-.2,1.205,1.205,0,0,1-.5-.5l-2.9-5.2a1,1,0,0,0-.4-.5c-.1-.1-.3-.1-.6-.1H45.1c-.2,0-.3.1-.5.2a.764.764,0,0,0-.2.5v5.1c0,.2-.1.3-.2.5a.764.764,0,0,1-.5.2h-2c-.2,0-.3-.1-.5-.2a.764.764,0,0,1-.2-.5v-15a3.087,3.087,0,0,0-.2-1.1,4.35,4.35,0,0,0-.6-.7.365.365,0,0,1-.2-.5c0-.2.2-.3.4-.3ZM27,21.4a.749.749,0,0,0-.5.1,1.38,1.38,0,0,0-.3.4l-1.3,3.7a1.756,1.756,0,0,1-.4.5,1.689,1.689,0,0,1-.5.2H21.7a.764.764,0,0,1-.5-.2.446.446,0,0,1,0-.5l5.7-14.5a2.953,2.953,0,0,0,.2-1.3,1.346,1.346,0,0,0-.5-.9c-.2-.2-.3-.4-.2-.6,0-.2.1-.3.4-.3h4.5a1.421,1.421,0,0,1,.6.2,1,1,0,0,1,.4.5l6.6,16.9a.454.454,0,0,1,0,.5.588.588,0,0,1-.5.2H36.2a1.421,1.421,0,0,1-.6-.2,1,1,0,0,1-.4-.5l-1.4-3.7a1.38,1.38,0,0,0-.3-.4.749.749,0,0,0-.5-.1H27Zm4.9-2.9c.5,0,.6-.2.4-.7l-1.5-4-.6-2.2c0-.2-.1-.2-.3-.2-.1,0-.2.1-.3.2L29,13.8l-1.5,4c-.2.5,0,.7.4.7Z" fill="#fff"/>
</svg>
